<svg width="40" height="41" viewBox="0 0 40 41" fill="none" xmlns="http://www.w3.org/2000/svg">
<g clip-path="url(#clip0_2258_8058)">
<path d="M20 40.5C31.0457 40.5 40 31.5457 40 20.5C40 9.4543 31.0457 0.5 20 0.5C8.9543 0.5 0 9.4543 0 20.5C0 31.5457 8.9543 40.5 20 40.5Z" fill="#0052FF"/>
<path fill-rule="evenodd" clip-rule="evenodd" d="M5.9375 20.5C5.9375 28.2665 12.2335 34.5625 20 34.5625C27.7665 34.5625 34.0625 28.2665 34.0625 20.5C34.0625 12.7335 27.7665 6.4375 20 6.4375C12.2335 6.4375 5.9375 12.7335 5.9375 20.5ZM16.4062 15.9688C15.8885 15.9688 15.4688 16.3885 15.4688 16.9062V24.0938C15.4688 24.6115 15.8885 25.0312 16.4062 25.0312H23.5938C24.1115 25.0312 24.5312 24.6115 24.5312 24.0938V16.9062C24.5312 16.3885 24.1115 15.9688 23.5938 15.9688H16.4062Z" fill="white"/>
</g>
<defs>
<clipPath id="clip0_2258_8058">
<rect width="40" height="40" fill="white" transform="translate(0 0.5)"/>
</clipPath>
</defs>
</svg>
