<svg width="54" height="49" viewBox="0 0 54 49" fill="none" xmlns="http://www.w3.org/2000/svg">
<path d="M28 0C32.0761 1.58496e-07 35.675 2.03406 37.8438 5.14062C37.2427 5.04795 36.627 5 36 5H20C13.3726 5 8 10.3726 8 17V33C8 35.5508 8.79826 37.9141 10.1553 39.8584C4.40369 38.9709 2.33316e-07 34.0001 0 28V12C2.57711e-07 5.37258 5.37258 2.57703e-07 12 0H28Z" fill="url(#paint0_linear_203_196)"/>
<path d="M42 9C48.6274 9 54 14.3726 54 21V37C54 43.6274 48.6274 49 42 49H26C19.3726 49 14 43.6274 14 37V21C14 14.3726 19.3726 9 26 9H42Z" fill="url(#paint1_linear_203_196)"/>
<defs>
<linearGradient id="paint0_linear_203_196" x1="18.9219" y1="0" x2="18.9219" y2="39.8584" gradientUnits="userSpaceOnUse">
<stop stop-color="#5C3EAF"/>
<stop offset="1" stop-color="#D279F5"/>
</linearGradient>
<linearGradient id="paint1_linear_203_196" x1="34" y1="9" x2="34" y2="49" gradientUnits="userSpaceOnUse">
<stop stop-color="#5C3EAF"/>
<stop offset="1" stop-color="#D279F5"/>
</linearGradient>
</defs>
</svg>
