<svg width="40" height="41" viewBox="0 0 40 41" fill="none" xmlns="http://www.w3.org/2000/svg">
<g clip-path="url(#clip0_2258_8012)">
<path d="M38.0082 2.0625L22.4004 13.6547L25.2867 6.81544L38.0082 2.0625Z" fill="#E2761B" stroke="#E2761B" stroke-width="0.3125" stroke-linecap="round" stroke-linejoin="round"/>
<path d="M1.97559 2.0625L17.4579 13.7645L14.7128 6.81544L1.97559 2.0625Z" fill="#E4761B" stroke="#E4761B" stroke-width="0.3125" stroke-linecap="round" stroke-linejoin="round"/>
<path d="M32.3912 28.9331L28.2344 35.3017L37.1285 37.7488L39.6854 29.0743L32.3912 28.9331Z" fill="#E4761B" stroke="#E4761B" stroke-width="0.3125" stroke-linecap="round" stroke-linejoin="round"/>
<path d="M0.329102 29.0743L2.87028 37.7488L11.7644 35.3017L7.60753 28.9331L0.329102 29.0743Z" fill="#E4761B" stroke="#E4761B" stroke-width="0.3125" stroke-linecap="round" stroke-linejoin="round"/>
<path d="M11.2626 18.1723L8.78418 21.9213L17.6156 22.3134L17.3018 12.8232L11.2626 18.1723Z" fill="#E4761B" stroke="#E4761B" stroke-width="0.3125" stroke-linecap="round" stroke-linejoin="round"/>
<path d="M28.721 18.1724L22.6033 12.7136L22.3994 22.3136L31.2151 21.9215L28.721 18.1724Z" fill="#E4761B" stroke="#E4761B" stroke-width="0.3125" stroke-linecap="round" stroke-linejoin="round"/>
<path d="M11.7646 35.3017L17.0666 32.7134L12.4862 29.137L11.7646 35.3017Z" fill="#E4761B" stroke="#E4761B" stroke-width="0.3125" stroke-linecap="round" stroke-linejoin="round"/>
<path d="M22.917 32.7134L28.2346 35.3017L27.4974 29.137L22.917 32.7134Z" fill="#E4761B" stroke="#E4761B" stroke-width="0.3125" stroke-linecap="round" stroke-linejoin="round"/>
<path d="M28.2356 35.3019L22.918 32.7136L23.3415 36.1803L23.2944 37.6391L28.2356 35.3019Z" fill="#D7C1B3" stroke="#D7C1B3" stroke-width="0.3125" stroke-linecap="round" stroke-linejoin="round"/>
<path d="M11.7646 35.3019L16.7058 37.6391L16.6745 36.1803L17.0666 32.7136L11.7646 35.3019Z" fill="#D7C1B3" stroke="#D7C1B3" stroke-width="0.3125" stroke-linecap="round" stroke-linejoin="round"/>
<path d="M16.7849 26.8468L12.3613 25.5449L15.4829 24.1174L16.7849 26.8468Z" fill="#233447" stroke="#233447" stroke-width="0.3125" stroke-linecap="round" stroke-linejoin="round"/>
<path d="M23.2002 26.8468L24.5022 24.1174L27.6394 25.5449L23.2002 26.8468Z" fill="#233447" stroke="#233447" stroke-width="0.3125" stroke-linecap="round" stroke-linejoin="round"/>
<path d="M11.7643 35.3017L12.5172 28.9331L7.60742 29.0743L11.7643 35.3017Z" fill="#CD6116" stroke="#CD6116" stroke-width="0.3125" stroke-linecap="round" stroke-linejoin="round"/>
<path d="M27.4824 28.9331L28.2354 35.3017L32.3922 29.0743L27.4824 28.9331Z" fill="#CD6116" stroke="#CD6116" stroke-width="0.3125" stroke-linecap="round" stroke-linejoin="round"/>
<path d="M31.2151 21.9214L22.3994 22.3135L23.2151 26.8469L24.5171 24.1175L27.6543 25.5449L31.2151 21.9214Z" fill="#CD6116" stroke="#CD6116" stroke-width="0.3125" stroke-linecap="round" stroke-linejoin="round"/>
<path d="M12.3606 25.5449L15.4979 24.1175L16.7842 26.8469L17.6156 22.3135L8.78418 21.9214L12.3606 25.5449Z" fill="#CD6116" stroke="#CD6116" stroke-width="0.3125" stroke-linecap="round" stroke-linejoin="round"/>
<path d="M8.78418 21.9214L12.4861 29.1371L12.3606 25.5449L8.78418 21.9214Z" fill="#E4751F" stroke="#E4751F" stroke-width="0.3125" stroke-linecap="round" stroke-linejoin="round"/>
<path d="M27.6549 25.5449L27.498 29.1371L31.2157 21.9214L27.6549 25.5449Z" fill="#E4751F" stroke="#E4751F" stroke-width="0.3125" stroke-linecap="round" stroke-linejoin="round"/>
<path d="M17.6156 22.3135L16.7842 26.8468L17.8195 32.1958L18.0548 25.1527L17.6156 22.3135Z" fill="#E4751F" stroke="#E4751F" stroke-width="0.3125" stroke-linecap="round" stroke-linejoin="round"/>
<path d="M22.4001 22.3135L21.9766 25.137L22.1648 32.1958L23.2158 26.8468L22.4001 22.3135Z" fill="#E4751F" stroke="#E4751F" stroke-width="0.3125" stroke-linecap="round" stroke-linejoin="round"/>
<path d="M23.216 26.8469L22.165 32.1959L22.918 32.7135L27.4984 29.1371L27.6552 25.5449L23.216 26.8469Z" fill="#F6851B" stroke="#F6851B" stroke-width="0.3125" stroke-linecap="round" stroke-linejoin="round"/>
<path d="M12.3613 25.5449L12.4868 29.1371L17.0672 32.7135L17.8202 32.1959L16.7849 26.8469L12.3613 25.5449Z" fill="#F6851B" stroke="#F6851B" stroke-width="0.3125" stroke-linecap="round" stroke-linejoin="round"/>
<path d="M23.2941 37.639L23.3411 36.1802L22.949 35.8351H17.0352L16.6745 36.1802L16.7058 37.639L11.7646 35.3018L13.4901 36.7135L16.9882 39.1449H22.996L26.5097 36.7135L28.2352 35.3018L23.2941 37.639Z" fill="#C0AD9E" stroke="#C0AD9E" stroke-width="0.3125" stroke-linecap="round" stroke-linejoin="round"/>
<path d="M22.9179 32.7134L22.165 32.1958H17.8199L17.067 32.7134L16.6748 36.1801L17.0356 35.835H22.9493L23.3415 36.1801L22.9179 32.7134Z" fill="#161616" stroke="#161616" stroke-width="0.3125" stroke-linecap="round" stroke-linejoin="round"/>
<path d="M38.667 14.4076L40.0003 8.0076L38.0082 2.0625L22.918 13.2625L28.7219 18.1723L36.9258 20.5723L38.7454 18.4547L37.9611 17.89L39.216 16.7449L38.2435 15.9919L39.4984 15.0351L38.667 14.4076Z" fill="#763D16" stroke="#763D16" stroke-width="0.3125" stroke-linecap="round" stroke-linejoin="round"/>
<path d="M0 8.0076L1.33333 14.4076L0.486275 15.0351L1.74118 15.9919L0.784314 16.7449L2.03922 17.89L1.2549 18.4547L3.05882 20.5723L11.2627 18.1723L17.0667 13.2625L1.97647 2.0625L0 8.0076Z" fill="#763D16" stroke="#763D16" stroke-width="0.3125" stroke-linecap="round" stroke-linejoin="round"/>
<path d="M36.9255 20.5724L28.7216 18.1724L31.2157 21.9214L27.498 29.1371L32.3922 29.0743H39.6863L36.9255 20.5724Z" fill="#F6851B" stroke="#F6851B" stroke-width="0.3125" stroke-linecap="round" stroke-linejoin="round"/>
<path d="M11.2624 18.1724L3.05851 20.5724L0.329102 29.0743H7.60753L12.486 29.1371L8.784 21.9214L11.2624 18.1724Z" fill="#F6851B" stroke="#F6851B" stroke-width="0.3125" stroke-linecap="round" stroke-linejoin="round"/>
<path d="M22.4001 22.3135L22.9178 13.2625L25.3021 6.81543H14.7139L17.0668 13.2625L17.6158 22.3135L17.8041 25.1684L17.8197 32.1958H22.1648L22.1962 25.1684L22.4001 22.3135Z" fill="#F6851B" stroke="#F6851B" stroke-width="0.3125" stroke-linecap="round" stroke-linejoin="round"/>
</g>
<defs>
<clipPath id="clip0_2258_8012">
<rect width="40" height="40" fill="white" transform="translate(0 0.5)"/>
</clipPath>
</defs>
</svg>
