<svg width="40" height="41" viewBox="0 0 40 41" fill="none" xmlns="http://www.w3.org/2000/svg">
<g clip-path="url(#clip0_2258_8052)">
<path d="M20 40.5C31.0457 40.5 40 31.5457 40 20.5C40 9.4543 31.0457 0.5 20 0.5C8.9543 0.5 0 9.4543 0 20.5C0 31.5457 8.9543 40.5 20 40.5Z" fill="url(#paint0_radial_2258_8052)"/>
<path d="M12.5586 15.9473C16.582 12.0176 23.1133 12.0176 27.1367 15.9473L27.6211 16.4238C27.8242 16.6191 27.8242 16.9395 27.6211 17.1348L25.9648 18.752C25.8633 18.8535 25.6992 18.8535 25.5977 18.752L24.9336 18.1035C22.1211 15.3613 17.5742 15.3613 14.7617 18.1035L14.0508 18.7988C13.9492 18.9004 13.7852 18.9004 13.6836 18.7988L12.0273 17.1816C11.8242 16.9863 11.8242 16.666 12.0273 16.4707L12.5586 15.9473ZM30.5664 19.291L32.043 20.7285C32.2461 20.9238 32.2461 21.2441 32.043 21.4395L25.3945 27.9316C25.1914 28.127 24.8633 28.127 24.668 27.9316L19.9492 23.3223C19.9023 23.2754 19.8164 23.2754 19.7695 23.3223L15.0508 27.9316C14.8477 28.127 14.5195 28.127 14.3242 27.9316L7.65234 21.4395C7.44922 21.2441 7.44922 20.9238 7.65234 20.7285L9.12891 19.291C9.33203 19.0957 9.66016 19.0957 9.85547 19.291L14.5742 23.9004C14.6211 23.9473 14.707 23.9473 14.7539 23.9004L19.4727 19.291C19.6758 19.0957 20.0039 19.0957 20.1992 19.291L24.918 23.9004C24.9648 23.9473 25.0508 23.9473 25.0977 23.9004L29.8164 19.291C30.0352 19.0957 30.3633 19.0957 30.5664 19.291Z" fill="white"/>
</g>
<defs>
<radialGradient id="paint0_radial_2258_8052" cx="0" cy="0" r="1" gradientUnits="userSpaceOnUse" gradientTransform="translate(0.000123978 20.5006) scale(40)">
<stop stop-color="#5D9DF6"/>
<stop offset="1" stop-color="#006FFF"/>
</radialGradient>
<clipPath id="clip0_2258_8052">
<rect width="40" height="40" fill="white" transform="translate(0 0.5)"/>
</clipPath>
</defs>
</svg>
